<svg width="28" height="28" viewBox="0 0 28 28" fill="none" xmlns="http://www.w3.org/2000/svg">
<g id="&#208;&#161;&#208;&#187;&#208;&#190;&#208;&#185; 2">
<g id="complete">
<g id="Ava_Mona">
<path id="Vector" d="M25.6143 10.8864V17.1136L22.5007 22.5064L17.1135 25.6144H10.8863L5.49348 22.5064L2.37988 17.1136V10.8864L5.49348 5.49362L10.8863 2.38562H17.1135L22.5007 5.49362L25.6143 10.8864Z" fill="#B87088"/>
<path id="Vector_2" d="M9.05525 7.14555L6.37285 9.87275L5.49365 13.1039L6.24965 15.7135L6.18805 17.7967L8.42245 20.6079L12.2753 22.0863L15.8201 21.4255L19.4993 20.6639L21.8233 16.8335L22.6969 13.1487L21.0673 8.92635L18.5921 6.51275L15.3273 5.99755L12.2753 5.45435L9.05525 7.14555Z" fill="#CA878E"/>
<path id="Vector_3" d="M18.911 17.9704C18.4838 18.4498 17.9586 18.8318 17.371 19.0904L17.1806 19.18C15.4604 19.9082 13.5674 20.1279 11.7262 19.8128C11.5582 19.8128 11.4406 19.7568 11.3566 19.7344H11.2558L11.071 19.6672C10.8972 19.5997 10.7271 19.5231 10.5614 19.4376C9.97791 19.1401 9.46748 18.7172 9.06667 18.1992C8.66585 17.6813 8.38456 17.0811 8.24296 16.4416C8.02053 15.3035 8.10361 14.1268 8.48376 13.0312C8.50362 12.9479 8.52792 12.8656 8.55656 12.7848C8.61567 12.5946 8.68483 12.4077 8.76376 12.2248H8.81416L9.13896 12.1912H9.20616H9.50296H9.54776L9.87816 12.1632L10.2534 12.1296H10.455L11.4742 12.0624H11.9782C12.2358 12.0624 12.5382 12.0344 12.7902 12.0288C13.1598 12.0288 13.5518 11.9952 13.955 11.9896H14.2854H15.5174C15.9038 11.9896 16.3014 11.9896 16.699 11.9896C17.259 11.9896 17.819 12.0288 18.379 12.068H18.4294L18.9894 12.1072L19.0678 12.2752C19.0958 12.3312 19.1238 12.3984 19.1574 12.4768C19.191 12.5552 19.2246 12.6448 19.2638 12.7456C19.3173 12.8737 19.3641 13.0046 19.4038 13.1376C19.8126 14.28 20.2214 16.408 18.911 17.9704Z" fill="#F4E1CB"/>
<path id="Vector_4" d="M19.3983 13.0312C16.4527 12.3536 8.48389 13.0312 8.48389 13.0312C8.48389 13.0312 8.52869 12.8744 8.55669 12.7904C8.61269 12.6 8.68549 12.4096 8.76389 12.2304C12.1568 11.873 15.5739 11.8055 18.9783 12.0288C19.081 12.2347 19.1726 12.4459 19.2527 12.6616C19.3087 12.7568 19.3535 12.88 19.3983 13.0312Z" fill="#BFA2AC"/>
<path id="Vector_5" d="M19.2584 12.6448C19.2192 12.544 19.18 12.4544 19.152 12.376C19.124 12.2976 19.0904 12.2304 19.0624 12.1744L18.984 12.0064L18.424 11.9672H18.3736C17.8136 11.928 17.2536 11.9056 16.6936 11.8888H16.0272H15.4672C15.064 11.8888 14.672 11.8888 14.2856 11.8888H13.9552L12.7904 11.928C12.5104 11.928 12.2304 11.928 11.9784 11.9616H11.4744L10.4552 12.0288H10.2536L9.87836 12.0624L9.54796 12.0904H9.51996H9.22316H9.15596L8.83116 12.124H8.78076C8.70183 12.3068 8.63267 12.4938 8.57356 12.684C8.54492 12.7647 8.52062 12.847 8.50076 12.9304L8.36076 12.88C8.2487 12.7171 8.18323 12.5267 8.17138 12.3293C8.15954 12.132 8.20179 11.9351 8.29356 11.76L9.08316 10.1808C9.17003 10.012 9.3018 9.87057 9.46396 9.77197C9.52231 9.73731 9.58428 9.70914 9.64876 9.68797C9.86156 9.62077 10.1584 9.53117 10.5392 9.44717C11.1762 9.30866 11.8216 9.21139 12.4712 9.15597C13.428 9.06738 14.3898 9.04679 15.3496 9.09437C15.7584 9.09437 16.1896 9.13357 16.6432 9.17277L17.2928 9.23437L18.1496 9.34077C18.2408 9.35314 18.3296 9.37958 18.4128 9.41917C18.6446 9.52166 18.8274 9.71049 18.9224 9.94557L19.5216 11.4352C19.6061 11.6396 19.6261 11.865 19.5791 12.0811C19.5321 12.2973 19.4202 12.4939 19.2584 12.6448Z" fill="#3E4658"/>
<path id="Vector_6" d="M17.2927 9.23999C16.5983 9.16719 15.9543 9.11679 15.3495 9.09439C14.3896 9.05119 13.4279 9.07365 12.4711 9.16159C11.8211 9.21422 11.1756 9.31152 10.5391 9.45279C11.09 8.84389 11.8059 8.4081 12.5999 8.19839C13.5232 7.9285 14.5045 7.9285 15.4279 8.19839C16.1244 8.39016 16.7641 8.74752 17.2927 9.23999Z" fill="#F4E1CB"/>
<path id="Vector_7" d="M12.5999 8.19838C12.2584 8.29354 11.9294 8.42888 11.6199 8.60158C11.21 8.81595 10.8435 9.10457 10.5391 9.45278C10.1583 9.53678 9.86147 9.62078 9.64867 9.68798C9.58398 9.71101 9.52201 9.74106 9.46387 9.77758L9.65987 6.15998L9.71587 5.12398C9.72031 5.02972 9.75477 4.93934 9.81423 4.86606C9.87369 4.79278 9.95502 4.74043 10.0463 4.71666C10.1377 4.69289 10.2342 4.69894 10.3218 4.73394C10.4095 4.76894 10.4836 4.83104 10.5335 4.91118L12.5999 8.19838Z" fill="#E6D0B7"/>
<path id="Vector_8" d="M18.413 9.42479C18.3299 9.3852 18.2411 9.35875 18.1498 9.34639L17.293 9.23999L17.1754 9.13919C16.6664 8.70635 16.0707 8.38747 15.4282 8.20399L17.041 4.96719C17.0703 4.90443 17.1149 4.85002 17.1707 4.80894C17.2264 4.76785 17.2916 4.74139 17.3602 4.73199C17.4184 4.72415 17.4775 4.72797 17.5342 4.74321C17.5909 4.75846 17.644 4.78483 17.6904 4.8208C17.7367 4.85676 17.7755 4.90159 17.8044 4.95268C17.8333 5.00377 17.8517 5.0601 17.8586 5.11839L17.965 5.99199L18.413 9.42479Z" fill="#E6D0B7"/>
<path id="Vector_9" d="M11.7712 9.63757L11.6704 11.4408L16.0216 11.2952L15.8872 9.63757H11.7712Z" fill="#E6EEF2"/>
<path id="Vector_10" d="M12.7286 12.4488L10.7238 14.4648L9.81104 14.028C9.83904 14.028 11.0094 12.5664 11.491 11.984L11.995 11.9504L12.7286 12.4488Z" fill="#272B2E"/>
<path id="Vector_11" d="M17.7858 14.028L16.873 14.4648L14.8682 12.4488L15.7418 11.8888H16.0386C16.4194 12.3536 17.7578 14 17.7858 14.028Z" fill="#272B2E"/>
<path id="Vector_12" d="M13.7087 25.6144H11.5527C10.6987 24.0573 10.0886 22.3782 9.74392 20.636C9.71881 20.4804 9.73685 20.3208 9.79609 20.1747C9.85533 20.0285 9.9535 19.9015 10.0799 19.8072C10.2199 19.6952 10.3935 19.5608 10.5839 19.4376C10.7497 19.5245 10.9198 19.603 11.0935 19.6728L11.2783 19.7344H11.3791C11.7282 21.0544 12.1717 22.3476 12.7063 23.604C12.7679 23.7552 12.8407 23.9008 12.9079 24.052C12.9751 24.2032 13.0199 24.2872 13.0759 24.4048C13.1935 24.64 13.3167 24.8752 13.4399 25.088C13.5631 25.3008 13.6079 25.4576 13.7087 25.6144Z" fill="#323947"/>
<path id="Vector_13" d="M18.8105 20.916C18.7673 21.0069 18.6941 21.0801 18.6033 21.1232C18.2057 21.3304 17.6177 21.6832 16.9681 22.064C15.6689 22.8648 14.1289 23.9848 13.4121 25.1216C13.2945 24.9032 13.1713 24.668 13.0537 24.4384C12.9977 24.3208 12.9361 24.2032 12.8857 24.08C12.8353 23.9568 12.7457 23.7832 12.6841 23.6376C12.8276 23.4104 12.9867 23.1933 13.1601 22.988C13.3673 22.736 13.5969 22.4952 13.8321 22.26C14.5779 21.5487 15.4184 20.9438 16.3297 20.4624H16.3689C16.8307 20.2184 17.3099 20.0088 17.8025 19.8352C17.9412 19.788 18.0915 19.787 18.2309 19.8325C18.3702 19.8779 18.491 19.9673 18.5753 20.0872L18.7937 20.4064C18.8427 20.4817 18.8701 20.569 18.8731 20.6589C18.8761 20.7487 18.8544 20.8376 18.8105 20.916Z" fill="#2B313D"/>
<path id="Vector_14" d="M11.5529 25.6144H10.8865L7.58252 23.7104C8.02399 22.5155 8.77127 21.4573 9.74972 20.6416C10.0932 22.3816 10.7014 24.0586 11.5529 25.6144Z" fill="#3E4658"/>
<path id="Vector_15" d="M13.8263 22.2545C13.5911 22.4897 13.3615 22.7361 13.1543 22.9881C12.9822 23.1925 12.8232 23.4076 12.6783 23.6321C12.1437 22.3757 11.7001 21.0825 11.3511 19.7625L11.7207 19.8409C12.1109 20.4926 12.5792 21.0944 13.1151 21.6329C13.3391 21.8545 13.5766 22.0621 13.8263 22.2545Z" fill="#DAE6F2"/>
<path id="Vector_16" d="M15.4727 19.7512C14.5974 20.2573 13.8027 20.8915 13.1151 21.6328C12.5792 21.0944 12.1109 20.4926 11.7207 19.8408C12.9651 20.0581 14.2401 20.0277 15.4727 19.7512Z" fill="#A6859C"/>
<path id="Vector_17" d="M17.8024 19.8071C16.322 20.3389 14.9681 21.1722 13.8264 22.2543C13.5768 22.062 13.3393 21.8544 13.1152 21.6327C13.8029 20.8915 14.5975 20.2572 15.4728 19.7511C16.0484 19.6148 16.6106 19.4274 17.1528 19.1911L17.3432 19.0959L17.8024 19.8071Z" fill="#B8C9D9"/>
<path id="Vector_18" d="M20.2662 23.7944L17.1134 25.6144H13.7086C13.6022 25.452 13.5015 25.2896 13.4062 25.116C14.123 23.996 15.6463 22.876 16.9623 22.0584C17.6119 21.6496 18.1998 21.3248 18.5974 21.1176C18.6883 21.0745 18.7615 21.0013 18.8047 20.9104C19.4054 21.4819 19.8358 22.2088 20.0478 23.0104C20.1346 23.2676 20.2075 23.5293 20.2662 23.7944Z" fill="#3E4658"/>
<path id="Vector_19" d="M18.9054 17.9704C18.4809 18.4527 17.955 18.8352 17.3654 19.0904L17.175 19.1856C16.6327 19.4219 16.0705 19.6093 15.495 19.7456C14.2624 20.0221 12.9873 20.0525 11.743 19.8352L11.3734 19.7568H11.2726L11.0878 19.6952C10.9141 19.6254 10.744 19.5469 10.5782 19.46C9.99534 19.1631 9.48531 18.741 9.08453 18.2241C8.68375 17.7071 8.40212 17.108 8.25977 16.4696C8.91497 19.1576 13.9158 20.496 18.9054 17.9704Z" fill="#BFA2AC"/>
<path id="Vector_20" d="M24.248 3.752L17.752 0H10.248L3.752 3.752L0 10.248V17.752L3.752 24.248L10.248 28H17.752L24.248 24.248L28 17.752V10.248L24.248 3.752ZM27.468 17.612L23.8616 23.8616L17.612 27.468H10.388L4.1384 23.8616L0.56 17.612V10.388L4.1384 4.1384L10.388 0.56H17.612L23.8616 4.1384L27.468 10.388V17.612Z" fill="#B3897A"/>
<path id="Vector_21" d="M23.8617 4.13846L17.6121 0.560059H10.3881L4.13846 4.13846L0.560059 10.3881V17.6121L4.13846 23.8617L10.3881 27.4681H17.6121L23.8617 23.8617L27.4681 17.6121V10.3881L23.8617 4.13846ZM25.6145 17.1137L22.5009 22.5065L20.2609 23.7945L17.1081 25.6089H10.8865L7.58246 23.7049L5.49366 22.5065L2.38006 17.1137V10.8865L5.49366 5.49366L10.8865 2.38566H17.1137L22.5009 5.49366L25.6145 10.8865V17.1137Z" fill="#73524B"/>
<path id="Vector_22" d="M22.5007 5.49362L17.1135 2.38562H10.8863L5.49348 5.49362L2.37988 10.8864V17.1136L5.49348 22.5064L7.57668 23.7048L10.8807 25.6088H17.1135L20.2663 23.7944L22.5063 22.5064L25.6199 17.1136V10.8864L22.5007 5.49362ZM25.0879 16.968L22.1143 22.12L19.9975 23.3352L19.7343 23.492L16.9679 25.088H11.0319L7.90708 23.2848L5.87988 22.12L2.90628 16.968V11.032L5.87988 5.88002L11.0319 2.91202H16.9679L22.1143 5.88002L25.0879 11.032V16.968Z" fill="#4D3431"/>
<path id="Vector_23" d="M18.4126 9.41916C18.3292 9.38133 18.2404 9.35677 18.1494 9.34636C17.8526 9.30156 17.5894 9.27356 17.2926 9.23996C16.9419 8.90933 16.5364 8.64216 16.0942 8.45036C16.7662 6.73116 17.1582 5.94156 17.987 5.98076L18.4126 9.41916Z" fill="#BFA2AC"/>
<path id="Vector_24" d="M11.6199 8.60166C11.21 8.81602 10.8435 9.10465 10.5391 9.45286C10.1583 9.53686 9.86147 9.62086 9.64867 9.68806C9.58398 9.71109 9.52201 9.74114 9.46387 9.77766L9.65987 6.16006C10.4215 5.97526 10.8359 6.83206 11.6199 8.60166Z" fill="#BFA2AC"/>
<path id="Vector_25" d="M11.9614 15.344L13.8094 18.2112L15.6518 15.2656L13.8094 16.0216L11.9614 15.344Z" fill="#272B2E"/>
<path id="Vector_26" d="M1.97119 20.1039L3.36559 18.8271L5.49359 22.5063L8.46159 24.2143L7.17359 25.6143L4.13839 23.8615L1.97119 20.1039Z" fill="#8C645B"/>
<path id="Vector_27" d="M19.1855 3.57838L20.4847 2.18958L23.8615 4.13838L26.0679 7.95758L24.5671 9.07198L22.5007 5.49358L19.1855 3.57838Z" fill="#8C645B"/>
<path id="Vector_28" opacity="0.2" d="M4.64785 19.9864L4.50785 16.7384L7.08385 14.7224L6.14865 11.8664L4.50785 11.4408L3.35985 10.248L2.90625 11.032V16.968L4.64785 19.9864Z" fill="#332424"/>
<path id="Vector_29" opacity="0.2" d="M25.0879 15.9264L22.6967 17.4328L22.3439 19.4376L21.0391 21.0784L21.4031 22.5288L22.1143 22.12L25.0879 16.968V15.9264Z" fill="#332424"/>
<path id="Vector_30" opacity="0.2" d="M20.8657 8.54565L20.1377 9.77205L20.3897 11.2113L21.8345 12.3313L23.3633 11.6985L22.7081 8.72485L20.8657 8.54565Z" fill="#332424"/>
</g>
</g>
</g>
</svg>
