<svg xmlns="http://www.w3.org/2000/svg" viewBox="0 0 70 70"><defs><style>.cls-1{fill:#9ecc7a;}.cls-2{fill:#c3f29e;}.cls-3{fill:#89cce6;}.cls-4{fill:#70b2cc;}.cls-5{fill:#598eb3;}.cls-6{fill:#47698c;}.cls-7{fill:#926e5d;}.cls-8{fill:#805b4d;}.cls-9{fill:#5a8eb3;}.cls-10{fill:#9b49b6;}.cls-11{fill:#31294e;}.cls-12{fill:#fff;}.cls-13{fill:#663f33;}.cls-14{fill:#537da6;}.cls-15{fill:#7c5838;}.cls-16{fill:#66452e;}.cls-17{fill:#ffd3a6;}.cls-18{fill:#767674;}.cls-19{fill:#463021;}.cls-20{fill:#ffac59;}.cls-21{fill:#344c66;}.cls-21,.cls-35{opacity:0.2;}.cls-22{fill:#a4110e;}.cls-23{fill:#e61814;}.cls-24{fill:#d9b38c;}.cls-25{fill:#4d3423;opacity:0.3;}.cls-26{fill:#cc3833;}.cls-27{fill:#b3312d;}.cls-28{fill:#992a26;}.cls-29{fill:#e63f39;}.cls-30{fill:#bf3430;}.cls-31{fill:#ff6b66;}.cls-32{fill:#80231f;}.cls-33{fill:#661c19;}.cls-34{fill:#e64b45;}.cls-35{fill:#332424;}.cls-36{fill:#ffd687;}.cls-37{fill:#f29b30;}.cls-38{fill:#a65b3b;}.cls-39{fill:#ffbc52;}</style></defs><g id="Слой_2" data-name="Слой 2"><g id="work_place" data-name="work place"><g id="Ava_II"><polygon class="cls-1" points="64.04 27.22 64.04 42.78 56.25 56.27 42.78 64.04 27.22 64.04 13.73 56.27 5.95 42.78 5.95 27.22 13.73 13.73 27.22 5.96 42.78 5.96 56.25 13.73 64.04 27.22"/><polygon class="cls-2" points="22.64 17.86 15.93 24.69 13.74 32.76 15.63 39.28 15.47 44.5 21.06 51.51 30.68 55.21 39.54 53.56 48.75 51.66 54.56 42.08 56.74 32.87 52.67 22.31 46.49 16.28 38.32 14.99 30.68 13.63 22.64 17.86"/><path class="cls-3" d="M58.12,50.38,55.29,55.3l-5.95,3.43L45.46,61h0l-3,1.75H27.58l-1.9-1.09-4.4-2.53L14.7,55.3l-2.55-4.43a11.56,11.56,0,0,1,2.08-1.69,43.34,43.34,0,0,1,4.7-2.69c.85-.43,1.56-.76,2-1h0l.38-.17c.14.21.29.41.45.61A16.31,16.31,0,0,0,24.78,49a16.61,16.61,0,0,0,7,3.21,16.16,16.16,0,0,0,2.63.28H35c.23,0,.45,0,.67,0s.61,0,.91-.06a16.41,16.41,0,0,0,7.34-2.52,13.74,13.74,0,0,0,1.41-1,16.31,16.31,0,0,0,3.11-3.21,4.22,4.22,0,0,0,.27-.36h0a6.93,6.93,0,0,1,1,.11,12.25,12.25,0,0,1,3.45,1.26h0A22.21,22.21,0,0,1,56.51,49h0A21,21,0,0,1,58.12,50.38Z"/><path class="cls-4" d="M58.12,50.38,55.29,55.3l-1.9,1.09-4,2.34-.56.32L45.46,61h0l-3,1.75H27.58l-1.9-1.09L21.81,59.4l-.53-.31L18,57.19h0L14.7,55.3l-2.55-4.43a11.56,11.56,0,0,1,2.08-1.69c-1.54,2.17,1,5.93,3,6.13s3.86-7.3,1.66-8.82c.85-.43,1.56-.76,2-1h0l.38-.17c.14.21.29.41.45.61A16.31,16.31,0,0,0,24.78,49a16.61,16.61,0,0,0,7,3.21,25.2,25.2,0,0,1-4.46,2.47c-1.5.37-2.38,6.83,2.1,7.08,0,0-.1-2.73,1.75-3.49s4.72-1.77,7-1.42,4.13,3.12,4.21,4.75c0,0,2.89-.28,2.51-3.92s-1.14-3.88-1.14-3.88l-.35-1.53.43-2.37a13.74,13.74,0,0,0,1.41-1,16.31,16.31,0,0,0,3.11-3.21,4.22,4.22,0,0,0,.27-.36h0a6.93,6.93,0,0,1,1,.11,12.25,12.25,0,0,1,3.45,1.26h0s-4.11,5.47,0,7.29c2.88,1.28,4.39-4.21,3.35-5.05A21,21,0,0,1,58.12,50.38Z"/><path class="cls-5" d="M22.39,56.72s-.27,1.45-.58,2.68l-.53-.31L18,57.19c.26,0,2.95.42,2.93-5.46C20.9,45.54,22.39,56.72,22.39,56.72Z"/><path class="cls-5" d="M53.39,56.39l-4,2.34-.56.32a19.63,19.63,0,0,0,.1-3.06c-.15-1.67-.17-4.23-.17-4.23l1.15-1.52C49.6,55.25,51.49,56.47,53.39,56.39Z"/><path class="cls-6" d="M36.57,52.44V62.71H34.19V53.17l.26-.66H35c.23,0,.45,0,.67,0S36.27,52.47,36.57,52.44Z"/><path class="cls-7" d="M25.68,61.62l-4.4-2.53c-.1-.76-.17-1.75-.23-2.83h0c-.16-3.13-.17-7.12-.16-9.24,0-.84,0-1.39,0-1.47h0l.38-.17c.14.21.29.41.45.61A16.31,16.31,0,0,0,24.78,49Z"/><path class="cls-7" d="M49.44,57.57h0c-.06.72-.1,1.15-.1,1.15L45.44,61v0h0l1-1.17.38-1.62L45.44,57l.28-5.62s-.2-1.17-.4-2.41a16.31,16.31,0,0,0,3.11-3.21,4.22,4.22,0,0,0,.27-.36h0a6.93,6.93,0,0,1,1,.11c0,.09,0,.18,0,.28v0C50.11,48.55,49.65,55,49.44,57.57Z"/><path class="cls-8" d="M25.68,61.62,25,61.24l-3.74-2.15c-.1-.76-.17-1.75-.23-2.83a4.66,4.66,0,0,0,2.44,3.2L23.28,55l1.38,4.78-.53-8.22s-2.61-2.75-3.24-4.5c0-.84,0-1.39,0-1.47h0l.38-.17c.14.21.29.41.45.61a16.17,16.17,0,0,0,2.42,2.54l.63.51Z"/><path class="cls-9" d="M35,52.52,33.3,53.9l-3.89,3.16a33.09,33.09,0,0,1-4.48-5.87l-.06-.08c-.47-.73-.93-1.45-1.34-2.11-1.07-1.73-1.81-3-1.81-3h0a16.22,16.22,0,0,0,2.11,2.27,16.57,16.57,0,0,0,10.74,4.27Z"/><path class="cls-9" d="M48.43,45.72c.07,1-.67,2.52-1.71,4.14-.18.3-.38.6-.59.9a.24.24,0,0,1-.06.08A67.06,67.06,0,0,1,41.16,57l-3.75-3-1.77-1.43,0,0A16.52,16.52,0,0,0,47,47.37,16.85,16.85,0,0,0,48.43,45.72Z"/><path class="cls-10" d="M41.58,62a5.33,5.33,0,0,1-.09,1h-3l-2.28,0H34.52l-1.49,0L31.32,63l-.91-.05A5.62,5.62,0,1,1,41.58,62Z"/><path class="cls-11" d="M40.7,62c0,.11,0,.23,0,.34a4.62,4.62,0,0,1-.09.65H38.45l-2.28,0H34.52l-1.49,0L31.32,63a4.59,4.59,0,0,1-.1-1,4.75,4.75,0,0,1,.14-1.14,3.18,3.18,0,0,1,.09-.33,3.82,3.82,0,0,1,.13-.36,2.1,2.1,0,0,1,.13-.26A4.72,4.72,0,0,1,38.58,58l.27.2.15.11.26.24a4.76,4.76,0,0,1,1.41,2.87,2.11,2.11,0,0,1,0,.26,1.09,1.09,0,0,1,0,.18Z"/><path class="cls-10" d="M41.26,61.58l0,.25-.12.61-.4-.09L39,62l.36,1h-.93l-.51-1.41-.79-1.1-1.08-.87-1,1.37,1.11,2v0H34.52q.28-.12.57-.21l-.74-1.32-1.88.69-1.11-1.35-.49-.6.42-.34.06,0,.2-.17.16.2,1,1.26,1.52-.56,1.63-2.25,1.5,1.21L38.58,58l.26-.34.36.28,0,0,.3.22-.27.36L38,60.21l.57.8,2.08.45Z"/><polygon class="cls-12" points="41.21 61.83 40.7 61.9 40.15 61.97 38.6 61.64 39.1 63.01 38.73 63.01 38.18 61.52 37.37 60.36 36.01 59.25 34.75 60.99 35.91 63.05 35.33 63.05 35.48 63.01 34.46 61.19 32.55 61.91 31.48 60.65 31.45 60.54 31.29 59.93 31.24 59.76 31.35 59.89 31.58 60.18 32.66 61.49 34.44 60.83 35.94 58.75 37.44 59.96 38.61 58.43 38.85 58.24 39.2 57.98 39.32 57.88 39.23 58.01 39 58.35 37.69 60.21 38.44 61.25 40.69 61.72 41.21 61.83"/><polygon class="cls-10" points="35.9 58.37 34.37 58.48 33.61 57.34 33.91 59.25 35.33 59.25 35.9 58.65 35.9 58.37"/><polygon class="cls-10" points="38.21 61.86 36.23 62.31 36.52 61.76 37.8 61.24 38.21 61.86"/><polygon class="cls-10" points="32.63 57.47 29.87 57.47 28.38 55.61 29.4 58.25 31.21 58.29 31.38 58.75 32.41 58.25 32.63 57.47"/><polygon class="cls-10" points="36.95 56.62 39.38 55.31 38.03 57.18 36.95 56.62"/><path class="cls-8" d="M46.81,51.9l-.6,4.48,1.78.87-.5,1.5,1.95-1.18h0c-.06.72-.1,1.15-.1,1.15l-2.79,1.61L45.44,61v0h0l1-1.17.38-1.62L45.44,57l.28-5.62s-.2-1.17-.4-2.41c.21-.16.41-.33.61-.51a16,16,0,0,0,2.5-2.7,4.22,4.22,0,0,0,.27-.36h0a6.93,6.93,0,0,1,1,.11c0,.09,0,.18,0,.28v0A10.68,10.68,0,0,1,46.81,51.9Z"/><path class="cls-13" d="M25,61.24V54.86l-.87-6.35.63.51.9,12.6Z"/><path class="cls-13" d="M47,57.7s-.13,2-.16,2-.15.29-.3.61L45.44,61v0h0l1-1.17.38-1.62L45.44,57l.28-5.62s-.2-1.17-.4-2.41c.21-.16.41-.33.61-.51l.31,3.09-.57,4.87Z"/><path class="cls-14" d="M35,52.52,33.3,53.9c-3.35-.3-6.51-1.22-8.37-2.71l-.06-.08c-.47-.73-.93-1.45-1.34-2.11-1.07-1.73-1.81-3-1.81-3h0a16.22,16.22,0,0,0,2.11,2.27,16.57,16.57,0,0,0,10.74,4.27Z"/><path class="cls-14" d="M48.43,45.72c.07,1-.67,2.52-1.71,4.14-.18.3-.38.6-.59.9a.24.24,0,0,1-.06.08c-1.62,1.86-5,2.87-8.66,3.11l-1.77-1.43,0,0A16.52,16.52,0,0,0,47,47.37,16.85,16.85,0,0,0,48.43,45.72Z"/><path class="cls-15" d="M51.71,35.8a16.53,16.53,0,0,1-.21,2.65A15,15,0,0,1,51,40.56l-.09.29c-.06.19-.12.38-.19.56h0c-.11.31-.23.61-.36.91a14.24,14.24,0,0,1-.68,1.42h0a18.67,18.67,0,0,1-1,1.6,16.71,16.71,0,0,1-27.42,0,16.46,16.46,0,0,1-1.91-3.62q-.2-.51-.36-1.05c-.06-.2-.12-.4-.17-.6s-.14-.56-.2-.85-.11-.53-.15-.8c0,0,0,0,0-.07s0-.25-.05-.38a4,4,0,0,1-.06-.5c0-.3-.06-.61-.07-.91s0-.52,0-.78,0-.55,0-.82l0-.42a.49.49,0,0,1,0-.12,2.45,2.45,0,0,1,0-.27c0-.06,0-.12,0-.18a.68.68,0,0,1,0-.14l.06-.49,0-.2c0-.19.07-.38.11-.57,0,0,0,0,0,0s0,0,0-.08c0-.21.08-.42.13-.62l0-.14,0-.12c.05-.19.1-.38.16-.56a5.43,5.43,0,0,1,.17-.53c.08-.24.16-.47.25-.7s.23-.58.35-.87a.36.36,0,0,0,0-.09c.13-.28.27-.55.41-.82s.32-.58.48-.85.34-.55.53-.82A16.72,16.72,0,0,1,48,25.28a17.2,17.2,0,0,1,1.25,1.78,3.84,3.84,0,0,1,.22.39,4.79,4.79,0,0,1,.33.58c.1.19.2.38.29.58a.05.05,0,0,1,0,0,.11.11,0,0,1,0,.07,6.53,6.53,0,0,1,.31.66c.08.19.15.38.22.58s.09.24.13.36l.1.31c.06.19.12.37.17.56a.14.14,0,0,1,0,.06l0,.12c.06.21.11.41.16.62l0,.13c0,.16.07.32.1.49l0,.13a.37.37,0,0,1,0,.11.5.5,0,0,1,0,.13s0,.07,0,.11l0,.2.06.42s0,.09,0,.14,0,.08,0,.13l0,.22,0,.53a.76.76,0,0,1,0,.15C51.7,35.18,51.71,35.49,51.71,35.8Z"/><path class="cls-16" d="M50.74,41.42c-.11.31-.23.61-.36.91a14.24,14.24,0,0,1-.68,1.42h0a18.67,18.67,0,0,1-1,1.6,16.71,16.71,0,0,1-27.42,0,16.46,16.46,0,0,1-1.91-3.62,10.78,10.78,0,0,0,2.87,3.61A16.14,16.14,0,0,0,25,47.26a14.2,14.2,0,0,1-1.44-1.91,12.48,12.48,0,0,1-2.05-7.19v0c.13-2.53,2.74-1.54,5.53.27.71.45,1.43,1,2.12,1.49h0c1.68,1.25,3.21,2.55,4.07,3.27l.33.29a2.94,2.94,0,0,0,.41.31l5.26.44L44,41.09l.8-.52.45-.29,1.47-1,1.77-1.16h0a7.63,7.63,0,0,1,0,1.62,8.63,8.63,0,0,1-.23,1.62,9,9,0,0,1-.48,1.44h0l.76.36.45.22h0l1.05-1.24Z"/><path class="cls-17" d="M48.71,35.8a13.22,13.22,0,0,1-.64,4.13,13.68,13.68,0,0,1-19.14,8.16c-.26-.12-.5-.26-.75-.4a13.62,13.62,0,0,1-6-7,13.41,13.41,0,0,1-.9-4.88,13.72,13.72,0,1,1,27.43,0Z"/><path class="cls-15" d="M61.76,32.69a8.59,8.59,0,0,1-.57,2.83A8.71,8.71,0,0,1,53,41.11h-.19a8.15,8.15,0,0,1-1.92-.25,16.12,16.12,0,0,0,.57-2.4,16.53,16.53,0,0,0,.21-2.65c0-.54,0-1.07-.08-1.6a16.39,16.39,0,0,0-1.53-5.55A16.74,16.74,0,0,0,48,25.28a8.74,8.74,0,0,1,10.84.58l0,.06c-1.14,2.28.75,2.91.75,2.91S59.6,32.23,61.76,32.69Z"/><path class="cls-15" d="M18.38,34a15.44,15.44,0,0,0-.1,1.81,16.81,16.81,0,0,0,.2,2.57,16.38,16.38,0,0,0,.89,3.37,8.17,8.17,0,0,1-1.5.33,3.19,3.19,0,0,0-1.47-1.55,6.75,6.75,0,0,0-4.92-.24,8.53,8.53,0,0,1-3.19-6.43v-.4a8.5,8.5,0,0,1,8.14-8.3h.36a8.45,8.45,0,0,1,4.41,1.23,16.2,16.2,0,0,0-1.81,3.45A16,16,0,0,0,18.38,34Z"/><path class="cls-16" d="M19.37,41.74a8.17,8.17,0,0,1-1.5.33c-.76-1.75-3.13-2.66-6.39-1.79a8.53,8.53,0,0,1-3.19-6.43c.12,2,2.16,3.91,2.35,4.09a4.64,4.64,0,0,1,0-4.49c1-1.92,5.64-.31,7.72.54a15.44,15.44,0,0,0-.1,1.81,16.81,16.81,0,0,0,.2,2.57A16.38,16.38,0,0,0,19.37,41.74Z"/><path class="cls-16" d="M61.19,35.52a8.73,8.73,0,0,1-10.26,5.33,16.12,16.12,0,0,0,.57-2.4,16.53,16.53,0,0,0,.21-2.65c0-.54,0-1.07-.08-1.6a3,3,0,0,1,.71-.25,40.52,40.52,0,0,1,7.16-.54c.81,2.31-1.33,4.56-1.33,4.56A4.59,4.59,0,0,0,61.19,35.52Z"/><path class="cls-17" d="M59.51,33.17a5.42,5.42,0,0,1-.27,1.71,5.93,5.93,0,0,1-7.74,3.57,16.72,16.72,0,0,0-1.4-9.8,6,6,0,0,1,8.11,1A5.48,5.48,0,0,1,59.51,33.17Z"/><path class="cls-17" d="M18.28,35.8a16.81,16.81,0,0,0,.2,2.57,4.9,4.9,0,0,1-2.7.81A5.17,5.17,0,0,1,11,35.66a5.79,5.79,0,0,1-.33-1.95,5.68,5.68,0,0,1,.89-3.08,5.05,5.05,0,0,1,4.24-2.38,5,5,0,0,1,3.61,1.57A16.46,16.46,0,0,0,18.28,35.8Z"/><path class="cls-18" d="M31.41,36.86s-3.24,1.87-4.93-.11c-1.85-2.17.88-4.29.88-4.29l.56.61h0l2.9,3.16Z"/><path class="cls-12" d="M30.83,36.23a2.17,2.17,0,1,1-2.91-3.16h0Z"/><path class="cls-19" d="M26.65,38c5,3.06,13.58,2.26,17-.31,0,0-.79,3.05-8.22,3.32C28.67,41.23,26.65,38,26.65,38Z"/><path class="cls-12" d="M52.85,44.12a4.75,4.75,0,0,1-1.66.37s-2.79-1.38-5.67-2.71h0c-1.57-.73-3.17-1.44-4.34-1.9l.6-.74L43,38.65c1.13.15,2.22.34,3.24.57a43.18,43.18,0,0,1,7.53,2.39l.06,0A1.81,1.81,0,0,1,52.85,44.12Z"/><path class="cls-20" d="M45.5,41.77c-1.57-.73-3.17-1.44-4.34-1.9l.6-.74L43,38.65c1.13.15,2.22.34,3.24.57A1.37,1.37,0,0,0,45.5,41.77Z"/><path class="cls-21" d="M52.85,44.12a4.75,4.75,0,0,1-1.66.37s-2.79-1.38-5.67-2.71h0c-1.57-.73-3.17-1.44-4.34-1.9l.6-.74s6.9,2.13,9,3.44A10.41,10.41,0,0,1,52.85,44.12Z"/><path class="cls-22" d="M51.19,44.49c-1.59-2,.79-3.68,2.59-2.88l.06,0S55,44.23,51.19,44.49Z"/><path class="cls-23" d="M51.43,44a1.25,1.25,0,0,1-.16-1.23,1.72,1.72,0,0,1,1.54-.83,1.89,1.89,0,0,1,.63.1,1.44,1.44,0,0,1-.08,1.1A2.49,2.49,0,0,1,51.43,44Z"/><path class="cls-24" d="M28.51,32s2,0,2.9,3.29Z"/><path class="cls-24" d="M31.92,37a1.85,1.85,0,0,1-2.27,1.53Z"/><path class="cls-18" d="M39.21,36.23s3.24,1.87,4.93-.11c1.85-2.17-.88-4.29-.88-4.29l-.56.61h0l-2.9,3.16Z"/><path class="cls-12" d="M39.79,35.6a2.17,2.17,0,1,0,2.91-3.16h0Z"/><path class="cls-24" d="M42.1,31.39s-2,0-2.89,3.28Z"/><path class="cls-24" d="M38.69,36.4A1.87,1.87,0,0,0,41,37.93Z"/><path class="cls-24" d="M32.07,44.89c-.5.48-1,1-1.45,1.43a3.37,3.37,0,0,1,1.74,1.58l-2.23-1.09c-.53.54-1,1-1.2,1.28-.26-.12-.5-.26-.75-.4.38-.45.76-.87,1.15-1.27l-1-.47a5.19,5.19,0,0,1,1.35.1c.47-.46.94-.89,1.39-1.27l-2.59-.29a7.21,7.21,0,0,1,3.16-.18A22.76,22.76,0,0,1,35,42.08l-2.5,2.4a8.14,8.14,0,0,1,1.75.65Z"/><path class="cls-25" d="M18.38,34a15.44,15.44,0,0,0-.1,1.81,16.81,16.81,0,0,0,.2,2.57,16.38,16.38,0,0,0,.89,3.37,8.17,8.17,0,0,1-1.5.33,3.19,3.19,0,0,0-1.47-1.55c-2.11-6,.64-10,.64-10l-.61-5.39h.36a8.45,8.45,0,0,1,4.41,1.23,16.2,16.2,0,0,0-1.81,3.45A16,16,0,0,0,18.38,34Z"/><path class="cls-25" d="M58.8,25.92,52.85,31.2a24.78,24.78,0,0,1,0,9.9,8.15,8.15,0,0,1-1.92-.25,16.12,16.12,0,0,0,.57-2.4,16.53,16.53,0,0,0,.21-2.65c0-.54,0-1.07-.08-1.6a16.39,16.39,0,0,0-1.53-5.55A16.74,16.74,0,0,0,48,25.28a8.74,8.74,0,0,1,10.84.58Z"/><path class="cls-25" d="M50.44,29.38C45.12,32,25,35.56,18.6,32.57a16.19,16.19,0,0,1,2.6-6.2A16.72,16.72,0,0,1,48,25.28,17.34,17.34,0,0,1,50.44,29.38Z"/><path class="cls-26" d="M46,28.15l-4.9-6.74,2.34-2.87c.52-.23,1-.45,1.55-.63,6.06-2.32,11.71-2.06,14.21,1.51C63.69,25.92,46,28.15,46,28.15Z"/><path class="cls-27" d="M59.81,22.11c-1.14,4.44-13.86,6-13.86,6l-4.9-6.74,2.34-2.87c.52-.23,1-.45,1.55-.63,5.05,1.81,4.67,7.32,4.67,7.32s10.67-1.39,9.54-5.81A3.18,3.18,0,0,1,59.81,22.11Z"/><path class="cls-28" d="M59.81,22.11c-1.14,4.44-13.86,6-13.86,6l-4.9-6.74,2.34-2.87c5.1,1.81,6.31,5.95,5.15,8.49C48.54,27,57.28,25.26,59.81,22.11Z"/><path class="cls-29" d="M40.7,16.93a16.45,16.45,0,0,0-8.46-1.55c-8.2.7-14,9.19-13,13.69.38,1.8,1.81,3,4.58,2.75,6-.47,23.77-1.43,24.15-5.93C48.21,23,45.24,19.09,40.7,16.93ZM37.2,27s-4.42,1-5.84,1.17c-.72.1-1.69.17-2.48.22l-1.35.08c-1.32-1.67-.35-3,2-3.89a13.68,13.68,0,0,1,1.94-.56,12.51,12.51,0,0,1,1.73-.26,5.81,5.81,0,0,1,3,.4A2.15,2.15,0,0,1,37.2,27Z"/><path class="cls-30" d="M48,25.89c-.38,4.5-18.15,5.46-24.15,5.93-2.77.21-4.2-.95-4.58-2.75,2.75,1.14,6.6,0,7.87-.42h0l.42-.15,1.35-.08c.79-.05,1.76-.12,2.48-.22C32.78,28,37.2,27,37.2,27c10.93-1.09,9.11-4.12,3.5-10.09h0C45.24,19.09,48.21,23,48,25.89Z"/><path class="cls-31" d="M22.53,25.71C17.91,24,30.25,15.62,33.85,17.42S32,19.81,28.69,21,26,27,22.53,25.71Z"/><path class="cls-31" d="M37.92,18.93c2.5,2.36,3.23.43,2.14-.61S36.22,17.32,37.92,18.93Z"/><path class="cls-32" d="M37.2,27c0,1.38-.15,3.49-.15,3.49a2.39,2.39,0,0,0,.9-2C37.9,27.13,37.2,27,37.2,27Z"/><path class="cls-32" d="M27.53,28.5l1,3a2.12,2.12,0,0,1-1.26-1.33A1.31,1.31,0,0,1,27.53,28.5Z"/><circle class="cls-33" cx="29.86" cy="29.89" r="0.54"/><circle class="cls-33" cx="32.56" cy="29.54" r="0.54"/><circle class="cls-33" cx="35.04" cy="29.16" r="0.54"/><path class="cls-30" d="M27.53,28.5l-.42.15h0c-.91-2.17-1.16-4.14,4.46-4.62C27.1,25.11,26.21,26.83,27.53,28.5Z"/><path class="cls-34" d="M49.86,17.34c5.17-.79,7.26.76,7.49,2.14s-2.12-.15-4.61-.18S45.17,18.05,49.86,17.34Z"/><polygon class="cls-35" points="11.62 49.96 11.27 41.85 17.71 36.81 15.37 29.67 11.27 28.61 8.4 25.62 7.27 27.58 7.27 42.42 11.62 49.96"/><polygon class="cls-35" points="62.72 39.81 56.74 43.58 55.86 48.6 52.6 52.7 53.51 56.32 55.28 55.3 62.72 42.42 62.72 39.81"/><polygon class="cls-35" points="52.17 21.36 50.34 24.44 50.97 28.02 54.58 30.83 58.4 29.24 56.77 21.81 52.17 21.36"/><path class="cls-36" d="M60.62,9.38,44.38,0H25.62L9.38,9.38,0,25.62V44.38L9.38,60.62,25.62,70H44.38l16.24-9.38L70,44.38V25.62ZM68.68,44l-9,15.63L44,68.68H26l-15.63-9L1.32,44V26l9-15.63L26,1.32H44l15.63,9,9,15.63Z"/><path class="cls-37" d="M59.66,10.34,44,1.32H26l-15.63,9L1.32,26V44l9,15.63,15.63,9H44l15.63-9,9-15.63V26ZM64,42.78,56.25,56.26l-5.59,3.22v0L42.78,64H27.22L19,59.27h0l-5.2-3L6,42.78V27.22l7.79-13.48L27.22,6H42.78l13.47,7.78L64,27.22Z"/><path class="cls-38" d="M56.25,13.74,42.78,6H27.22L13.74,13.74,6,27.22V42.78l7.79,13.48,5.2,3h0L27.22,64H42.78l7.88-4.54v0l5.59-3.22L64,42.78V27.22Zm6.47,28.68L55.28,55.3l-5.28,3-.66.4-6.92,4H27.58l-7.82-4.51h0L14.7,55.3,7.27,42.42V27.58L14.7,14.7,27.58,7.28H42.42L55.28,14.7l7.44,12.88Z"/><polygon class="cls-39" points="4.92 50.26 8.42 47.06 13.73 56.27 21.15 60.54 17.94 64.04 10.34 59.66 4.92 50.26"/><polygon class="cls-39" points="47.96 8.95 51.21 5.47 59.66 10.34 65.17 19.89 61.42 22.69 56.25 13.73 47.96 8.95"/></g></g></g></svg>