<svg width="32" height="32" viewBox="0 0 32 32" fill="none" xmlns="http://www.w3.org/2000/svg">
<g id="&#208;&#161;&#208;&#187;&#208;&#190;&#208;&#185; 2">
<g id="complete">
<g id="Ava_Shiba">
<path id="Vector" d="M29.2736 12.4416V19.5584L25.7152 25.7216L19.5584 29.2736H12.4416L6.27837 25.7216L2.71997 19.5584V12.4416L6.27837 6.27839L12.4416 2.72639H19.5584L25.7152 6.27839L29.2736 12.4416Z" fill="#A66363"/>
<path id="Vector_2" d="M10.3488 8.1664L7.28324 11.2832L6.27844 14.976L7.14244 17.9584L7.07204 20.3392L9.62564 23.552L14.0288 25.2416L18.08 24.4864L22.2848 23.616L24.9408 19.2384L25.9392 15.0272L24.0768 10.2016L21.248 7.4432L17.5168 6.8544L14.0288 6.2336L10.3488 8.1664Z" fill="#BF7773"/>
<path id="Vector_3" d="M27.712 4.288L20.288 0H11.712L4.288 4.288L0 11.712V20.288L4.288 27.712L11.712 32H20.288L27.712 27.712L32 20.288V11.712L27.712 4.288ZM31.392 20.128L27.2704 27.2704L20.128 31.392H11.872L4.7296 27.2704L0.64 20.128V11.872L4.7296 4.7296L11.872 0.64H20.128L27.2704 4.7296L31.392 11.872V20.128Z" fill="#FFD687"/>
<path id="Vector_4" d="M27.2704 4.7296L20.128 0.639999H11.872L4.72961 4.7296L0.640015 11.872V20.128L4.72961 27.2704L11.872 31.392H20.128L27.2704 27.2704L31.392 20.128V11.872L27.2704 4.7296ZM29.2736 19.5584L25.7152 25.7216L23.1552 27.1936L19.552 29.2672H12.4416L8.66561 27.0912L6.27841 25.7216L2.72001 19.5584V12.4416L6.27841 6.2784L12.4416 2.7264H19.5584L25.7152 6.2784L29.2736 12.4416V19.5584Z" fill="#F29B30"/>
<path id="Vector_5" d="M25.7152 6.27839L19.5584 2.72639H12.4416L6.27837 6.27839L2.71997 12.4416V19.5584L6.27837 25.7216L8.65917 27.0912L12.4352 29.2672H19.5584L23.1616 27.1936L25.7216 25.7216L29.28 19.5584V12.4416L25.7152 6.27839ZM28.672 19.392L25.2736 25.28L22.8544 26.6688L22.5536 26.848L19.392 28.672H12.608L9.03677 26.6112L6.71997 25.28L3.32157 19.392V12.608L6.71997 6.71999L12.608 3.32799H19.392L25.2736 6.71999L28.672 12.608V19.392Z" fill="#80422D"/>
<path id="Vector_6" d="M2.25281 22.976L3.84641 21.5168L6.27841 25.7216L9.67041 27.6736L8.19841 29.2736L4.72961 27.2704L2.25281 22.976Z" fill="#FFBF59"/>
<path id="Vector_7" d="M21.9264 4.0896L23.4112 2.5024L27.2704 4.7296L29.792 9.0944L28.0768 10.368L25.7152 6.2784L21.9264 4.0896Z" fill="#FFBC52"/>
<path id="Vector_8" d="M12.1601 25.28C11.2129 24.7488 10.5857 23.3984 10.2785 21.1072C10.0604 19.2662 9.98981 17.4107 10.0673 15.5584C10.0673 15.3216 10.0673 15.0912 10.0673 14.8736C10.0673 14.656 10.0673 14.592 10.0673 14.4576C10.0673 14.3232 10.0673 14.1056 10.1057 13.9392C10.1441 13.7728 10.1057 13.6064 10.1569 13.4464C10.2081 13.2864 10.2081 13.056 10.2401 12.8768C10.2721 12.6976 10.2785 12.6464 10.2977 12.5376C10.3169 12.4288 10.3553 12.2688 10.3809 12.1408C10.4273 11.9345 10.4872 11.7314 10.5601 11.5328C10.5892 11.4414 10.6234 11.3517 10.6625 11.264C10.69 11.1824 10.7242 11.1032 10.7649 11.0272C10.7896 10.9671 10.8196 10.9093 10.8545 10.8544C10.8795 10.8005 10.9095 10.7491 10.9441 10.7008C10.9835 10.6257 11.0307 10.5549 11.0849 10.4896C11.1227 10.4327 11.1679 10.3811 11.2193 10.336C11.297 10.2412 11.385 10.1554 11.4817 10.08L11.6033 9.99681C11.6415 9.96961 11.6822 9.94604 11.7249 9.92641C11.4623 10.4534 11.3109 11.0287 11.2801 11.6166C11.2493 12.2045 11.3397 12.7925 11.5457 13.344C11.5457 13.344 10.1953 14.3232 10.2401 18.2784C10.2422 19.2304 10.4022 20.1755 10.7137 21.0752C11.0124 21.9112 11.5016 22.6662 12.1425 23.2804C12.7835 23.8947 13.5586 24.3514 14.4065 24.6144C13.7377 25.0486 12.9574 25.2798 12.1601 25.28Z" fill="#171726"/>
<path id="Vector_9" d="M19.872 22.0416C19.7824 22.2208 19.6992 22.3936 19.6096 22.5664C19.52 22.7392 19.5136 22.7456 19.4624 22.8352C19.0964 23.5049 18.5951 24.0912 17.9904 24.5568L17.7792 24.704C17.399 24.947 16.9786 25.1204 16.5376 25.216L16.2816 25.2672H16.2368C16.1516 25.2738 16.066 25.2738 15.9808 25.2672C15.7104 25.2925 15.4383 25.2925 15.168 25.2672C14.8769 25.1078 14.622 24.8899 14.4192 24.6272C15.453 24.5961 16.4693 24.3528 17.4052 23.9124C18.341 23.472 19.1763 22.844 19.8592 22.0672L19.872 22.0416Z" fill="#171726"/>
<path id="Vector_10" d="M23.52 20.2112C23.5203 20.4272 23.4924 20.6424 23.4368 20.8512C23.4394 20.8746 23.4394 20.8982 23.4368 20.9216C23.42 21.0163 23.3921 21.1087 23.3536 21.1968V21.2864C23.3152 21.3824 23.2768 21.4848 23.2256 21.5872C23.1744 21.6896 23.168 21.7088 23.1424 21.7728L23.104 21.8368C23.083 21.8829 23.0595 21.9277 23.0336 21.9712C22.9439 22.1342 22.8456 22.2922 22.7392 22.4448C22.7008 22.5088 22.6432 22.5792 22.5984 22.6496C22.4896 22.7968 22.368 22.944 22.2464 23.0912C22.0991 23.2576 21.9456 23.424 21.7728 23.5904L21.5296 23.8144L21.2736 24.032L20.9024 24.3072C20.7808 24.3968 20.6463 24.4864 20.512 24.5696L20.096 24.8128C19.6875 25.0395 19.259 25.228 18.816 25.376C18.5191 25.4783 18.2154 25.5596 17.9072 25.6192C17.0062 25.824 16.0614 25.692 15.2511 25.248C15.5215 25.2733 15.7936 25.2733 16.064 25.248C16.1492 25.2546 16.2347 25.2546 16.32 25.248H16.3647L16.6207 25.1968C17.0617 25.1012 17.4821 24.9278 17.8624 24.6848L18.0736 24.5376C18.6783 24.072 19.1796 23.4857 19.5456 22.816C19.5968 22.7264 19.648 22.6368 19.6928 22.5472C19.7376 22.4576 19.8656 22.2016 19.9552 22.0224C20.1814 21.494 20.3717 20.9509 20.5248 20.3968C20.7605 19.5571 20.9359 18.7016 21.0496 17.8368C21.6256 13.5552 20.2368 10.0864 18.8736 9.60639C17.5104 9.12639 16.6975 10.88 15.3023 10.8224C13.9071 10.7648 13.0303 9.42719 11.9999 9.82399L11.8143 9.90719L11.6927 9.97759L11.5711 10.0608C11.4745 10.1362 11.3865 10.222 11.3087 10.3168C11.2574 10.3618 11.2122 10.4135 11.1743 10.4704C11.1202 10.5357 11.073 10.6065 11.0335 10.6816C10.999 10.7299 10.969 10.7813 10.9439 10.8352C10.9091 10.8901 10.8791 10.9479 10.8543 11.008C10.8137 11.084 10.7795 11.1632 10.7519 11.2448C10.7101 11.3313 10.6759 11.4212 10.6495 11.5136C10.5767 11.7122 10.5168 11.9153 10.4703 12.1216C10.4703 12.2496 10.4127 12.384 10.3871 12.5184C10.3615 12.6528 10.3423 12.7424 10.3295 12.8576C10.3167 12.9728 10.2399 13.2416 10.2399 13.44C10.2399 13.6384 10.2015 13.76 10.1887 13.9328C10.1759 14.1056 10.1887 14.272 10.1503 14.4512C10.1119 14.6304 10.1503 14.7264 10.1503 14.8672C10.1503 15.008 10.1503 15.3152 10.1503 15.552C10.0506 17.4089 10.0999 19.2709 10.2975 21.12C10.6047 23.4112 11.2319 24.7616 12.1791 25.2928C11.8828 25.2874 11.5891 25.2356 11.3087 25.1392C11.0482 25.054 10.8005 24.9334 10.5727 24.7808C10.3551 24.6336 10.1503 24.4992 9.96475 24.3648C8.63355 23.4048 8.14075 22.6816 8.16635 21.2608C8.3274 19.4907 8.62698 17.736 9.06235 16.0128L9.11995 15.7312C9.33755 14.7136 9.56155 13.8112 9.81115 13.0048C10.109 11.9526 10.5143 10.9339 11.0207 9.96479L11.1039 9.81759C11.2679 9.51964 11.4518 9.23312 11.6543 8.95999C12.0473 8.39505 12.5448 7.91058 13.1199 7.53279C13.9539 7.0213 14.9016 6.72445 15.8783 6.66879C16.9972 6.49793 18.1393 6.75377 19.0784 7.38559C19.1172 7.60495 19.1794 7.81951 19.264 8.02559C19.3001 8.12023 19.3429 8.21219 19.3919 8.30079C19.4368 8.39039 19.488 8.47999 19.5392 8.56319C19.622 8.69938 19.7139 8.82981 19.8144 8.95359L19.9232 9.08799L19.9808 9.15839L20.1024 9.28639C20.1977 9.38742 20.2981 9.48354 20.4032 9.57439C20.4879 9.65466 20.5777 9.72948 20.672 9.79839C20.8733 9.96034 21.0873 10.1059 21.312 10.2336C22.5102 13.4401 23.2534 16.7986 23.52 20.2112Z" fill="#525280"/>
<path id="Vector_11" d="M21.2928 10.1888C21.0682 10.0611 20.8542 9.91555 20.6528 9.7536C20.5586 9.68469 20.4688 9.60987 20.384 9.5296L20.0832 9.2416L19.9616 9.1136L19.904 9.0432L19.7952 8.9088C19.6948 8.78502 19.6028 8.65459 19.52 8.5184C19.4688 8.4352 19.4176 8.3456 19.3728 8.256C19.3237 8.1674 19.2809 8.07544 19.2448 7.9808C19.1602 7.77472 19.098 7.56016 19.0592 7.3408C19.4614 6.86135 19.9697 6.48225 20.544 6.2336C20.6604 6.19504 20.786 6.19504 20.9024 6.2336C21.0496 6.2912 21.184 6.4896 21.2864 6.8736C21.5006 7.96809 21.5028 9.0935 21.2928 10.1888Z" fill="#F7A847"/>
<path id="Vector_12" d="M13.12 7.5008C12.6765 7.78887 12.2794 8.14279 11.9424 8.5504C11.5865 8.98274 11.2755 9.45022 11.0144 9.9456C11.0144 9.7792 10.6752 7.1424 11.0592 6.4576C11.0859 6.3983 11.1307 6.349 11.1872 6.3168C11.7824 6.0096 12.5504 6.8992 13.12 7.5008Z" fill="#F7A847"/>
<path id="Vector_13" d="M21.0753 16.6912C21.0753 17.0688 21.0177 17.4528 20.9665 17.8432C20.9665 17.9904 20.9281 18.1312 20.9025 18.2784C20.805 18.9819 20.6639 19.6787 20.4801 20.3648C20.3267 20.9329 20.132 21.489 19.8977 22.0288C19.2148 22.8056 18.3795 23.4336 17.4436 23.874C16.5078 24.3144 15.4915 24.5577 14.4577 24.5888C12.4417 23.904 10.3553 22.208 10.2913 18.2528C10.2913 18.0416 10.2913 17.8432 10.2913 17.6512C10.2977 16.801 10.416 15.9553 10.6433 15.136C10.781 14.4306 11.1396 13.7872 11.6673 13.2992C11.4613 12.7477 11.3709 12.1597 11.4017 11.5718C11.4325 10.9839 11.5839 10.4086 11.8465 9.8816L12.0129 9.8112C13.0433 9.4208 13.9329 10.7776 15.3089 10.8096C16.6849 10.8416 17.4273 9.1136 18.7969 9.6C20.0321 10.048 21.2865 12.9536 21.0753 16.6912Z" fill="#F7A847"/>
<path id="Vector_14" d="M20.9024 18.2784C20.7224 19.5698 20.376 20.8326 19.872 22.0352C19.1891 22.8119 18.3538 23.44 17.418 23.8804C16.4822 24.3208 15.4658 24.5641 14.432 24.5952C12.416 23.9104 10.3296 22.2144 10.2656 18.2592C10.2656 18.048 10.2656 17.8496 10.2656 17.6576C10.5216 16.5632 11.2192 15.9808 11.8592 15.9808C13.4592 15.9808 12.6336 14.6304 14.6496 14.592C16.6656 14.5536 15.52 15.872 18.6304 15.9808C20.6848 16.0832 20.9024 18.2784 20.9024 18.2784Z" fill="#FAEBD4"/>
<path id="Vector_15" d="M21.0752 16.6912C19.424 13.2992 18.1632 13.8816 15.072 13.8432C11.9808 13.8048 11.6224 14.0864 10.592 15.1616C10.7297 14.4562 11.0884 13.8129 11.616 13.3248C11.4101 12.7733 11.3197 12.1853 11.3505 11.5974C11.3813 11.0095 11.5327 10.4342 11.7952 9.9072L11.9616 9.8368C12.992 9.4464 13.8816 10.8032 15.2576 10.8352C16.6336 10.8672 17.376 9.1392 18.7456 9.6256C20.032 10.048 21.2864 12.9536 21.0752 16.6912Z" fill="#CC7A51"/>
<path id="Vector_16" d="M15.4688 12.4864L15.5071 12.704C15.5071 12.704 15.84 14.624 17.6256 14.624H17.7856C18.3605 14.6146 18.9137 14.4028 19.3479 14.0259C19.7822 13.649 20.0697 13.1311 20.1599 12.5632V12.3456L15.4688 12.4864ZM17.7599 14.272C17.3374 14.2915 16.9217 14.1599 16.5875 13.9007C16.2532 13.6415 16.0222 13.2717 15.9359 12.8576L19.7311 12.7616C19.6143 13.1951 19.3579 13.5779 19.0016 13.851C18.6453 14.124 18.2089 14.272 17.7599 14.272Z" fill="#272B2E"/>
<path id="Vector_17" d="M19.7312 12.7616C19.6144 13.1951 19.358 13.5779 19.0017 13.851C18.6453 14.124 18.209 14.272 17.76 14.272C17.3375 14.2915 16.9218 14.1599 16.5876 13.9007C16.2533 13.6415 16.0223 13.2717 15.936 12.8576L19.7312 12.7616Z" fill="#FF4D4D"/>
<path id="Vector_18" d="M14.7584 12.5056L10.5856 12.4224L10.6176 12.6464C10.72 13.3376 11.2576 14.6048 12.6144 14.6048H12.7616C13.0206 14.616 13.2793 14.5747 13.5219 14.4832C13.7645 14.3918 13.9861 14.2521 14.1733 14.0727C14.3605 13.8933 14.5094 13.6778 14.6111 13.4393C14.7127 13.2007 14.765 12.9441 14.7648 12.6848L14.7584 12.5056ZM12.736 14.2144C12.332 14.2185 11.9399 14.0782 11.6302 13.819C11.3204 13.5597 11.1134 13.1983 11.0464 12.8L14.368 12.8704C14.3112 13.257 14.1127 13.6087 13.8111 13.8571C13.5095 14.1055 13.1263 14.2328 12.736 14.2144Z" fill="#272B2E"/>
<path id="Vector_19" d="M14.368 12.8832C14.3084 13.2675 14.1087 13.6161 13.8073 13.8619C13.506 14.1076 13.1244 14.2332 12.736 14.2144C12.3321 14.2185 11.9399 14.0783 11.6302 13.819C11.3205 13.5597 11.1134 13.1983 11.0464 12.8L14.368 12.8832Z" fill="#FF4D4D"/>
<path id="Vector_20" d="M13.4399 15.2128C13.4604 15.5426 13.6027 15.853 13.8393 16.0836C14.0759 16.3143 14.3898 16.4487 14.7199 16.4608C15.2063 16.4608 15.8143 15.6608 15.8207 15.3216C15.8207 14.8032 15.3343 14.5792 14.3999 14.6112C13.4655 14.6432 13.4399 15.2128 13.4399 15.2128Z" fill="#272B2E"/>
<path id="Vector_21" d="M13.7217 18.8544C15.1937 18.9952 16.1473 18.4576 16.2369 18.8544C16.3265 19.2512 15.8465 20.0064 14.8737 19.8848C13.9009 19.7632 12.9473 18.7776 13.7217 18.8544Z" fill="#BFA2AC"/>
<path id="Vector_22" d="M20.4801 20.3712C20.3267 20.9393 20.132 21.4954 19.8977 22.0352C19.2148 22.812 18.3795 23.44 17.4436 23.8804C16.5078 24.3208 15.4915 24.5641 14.4577 24.5952C12.4417 23.9104 10.3553 22.2144 10.2913 18.2592C10.9249 21.2416 15.0721 24.6208 20.4801 20.3712Z" fill="#BFA2AC"/>
<path id="Vector_23" d="M11.3088 25.1264C11.0483 25.0412 10.8006 24.9206 10.5728 24.768C10.3552 24.6208 10.1504 24.4864 9.96484 24.352C9.04964 22.3744 9.05604 19.0592 9.12004 15.7184C9.33764 14.7008 9.56164 13.7984 9.81124 12.992C9.81124 13.632 9.81124 14.3104 9.77924 14.9824C9.68324 19.1104 9.60004 23.7632 11.3088 25.1264Z" fill="#FFBC52"/>
<path id="Vector_24" d="M22.1376 18.1056C21.9648 21.824 21.0624 23.7184 20.0128 24.832C19.6043 25.0586 19.1759 25.2472 18.7328 25.3952C18.436 25.4975 18.1323 25.5788 17.824 25.6384C19.3984 24.768 21.2288 23.5776 21.4848 18.0736C21.6896 13.76 20.6272 10.1952 18.9248 9.408C18.2208 9.0816 17.7088 9.3312 17.056 9.6512C16.5623 9.96236 15.9967 10.1411 15.4138 10.1703C14.8309 10.1994 14.2503 10.078 13.728 9.8176C13.3235 9.60459 12.8732 9.49328 12.416 9.49328C11.9588 9.49328 11.5085 9.60459 11.104 9.8176C11.2679 9.51964 11.4518 9.23312 11.6544 8.96C12.4452 8.78942 13.2706 8.89797 13.9904 9.2672C14.4257 9.49036 14.9126 9.5932 15.401 9.56507C15.8893 9.53694 16.3612 9.37887 16.768 9.1072C17.1176 8.86085 17.5233 8.70601 17.9482 8.65682C18.373 8.60763 18.8034 8.66566 19.2 8.8256C21.1968 9.7472 22.3616 13.3888 22.1376 18.1056Z" fill="#FFBC52"/>
<path id="Vector_25" d="M27.1488 22.0352L25.2736 25.28L19.3984 28.672H12.608L6.72643 25.28L5.36963 22.9376L7.41763 21.696L8.16003 21.248C8.16003 22.6688 8.62723 23.392 9.95843 24.352C10.144 24.4864 10.3488 24.6208 10.5664 24.768C10.7942 24.9206 11.0418 25.0412 11.3024 25.1264C11.5787 25.2215 11.868 25.2733 12.16 25.28C12.9527 25.2861 13.7303 25.064 14.4 24.64C14.6028 24.9027 14.8578 25.1206 15.1488 25.28C15.9591 25.724 16.9039 25.856 17.8048 25.6512C18.1131 25.5916 18.4168 25.5103 18.7136 25.408C19.1567 25.26 19.5852 25.0715 19.9936 24.8448L20.4096 24.6016C20.544 24.5184 20.6784 24.4288 20.8 24.3392L21.1712 24.064L21.4272 23.8464L21.6704 23.6224C21.8432 23.456 21.9968 23.2896 22.144 23.1232C22.2656 22.976 22.3872 22.8288 22.496 22.6816C22.5408 22.6112 22.5984 22.5408 22.6368 22.4768C22.7433 22.3242 22.8415 22.1662 22.9312 22.0032C22.9572 21.9597 22.9807 21.9149 23.0016 21.8688L23.04 21.8048C23.04 21.7408 23.0976 21.6832 23.1232 21.6192C23.1488 21.5552 23.2128 21.4144 23.2512 21.3184V21.2288C23.2897 21.1407 23.3177 21.0483 23.3344 20.9536C23.3371 20.9302 23.3371 20.9066 23.3344 20.8832C23.39 20.6744 23.418 20.4592 23.4176 20.2432L26.4 21.7472L26.5216 21.8112L26.6048 21.8496L27.1488 22.0352Z" fill="#3D3D5E"/>
<path id="Vector_26" d="M23.296 21.28C20.2496 30.5024 9.0176 28.5568 7.4176 21.696L8.16 21.248C8.16 22.6688 8.6272 23.392 9.9584 24.352C10.144 24.4864 10.3488 24.6208 10.5664 24.768C10.7942 24.9206 11.0418 25.0412 11.3024 25.1264C11.5786 25.2215 11.8679 25.2733 12.16 25.28C12.9526 25.2862 13.7303 25.064 14.4 24.64C14.6028 24.9027 14.8577 25.1206 15.1488 25.28C15.9591 25.724 16.9038 25.856 17.8048 25.6512C18.1131 25.5916 18.4168 25.5103 18.7136 25.408C19.1567 25.26 19.5851 25.0715 19.9936 24.8448C21.4746 24.0756 22.642 22.8154 23.296 21.28Z" fill="#2A2A4D"/>
<path id="Vector_27" d="M12.5184 16.896C13.44 17.3376 13.9968 17.1072 14.7456 17.1776C15.5589 17.3268 16.3975 17.2516 17.1712 16.96C17.1662 17.1582 17.0895 17.3478 16.9554 17.4937C16.8212 17.6396 16.6387 17.732 16.4416 17.7536C15.744 17.7984 15.3664 17.6256 14.6752 17.6576C13.984 17.6896 13.0816 17.7728 12.8448 17.4912C12.6979 17.3162 12.587 17.114 12.5184 16.896Z" fill="#272B2E"/>
<path id="Vector_28" d="M21.2927 10.1888C20.5754 9.77852 19.9656 9.20384 19.5135 8.512C20.0255 7.5264 20.6207 6.6432 21.2927 6.88C21.504 7.97282 21.504 9.09599 21.2927 10.1888Z" fill="#E08743"/>
<path id="Vector_29" d="M11.9424 8.5504C11.5865 8.98273 11.2755 9.45021 11.0144 9.9456C11.0144 9.7792 10.6752 7.1424 11.0592 6.4576C11.1168 7.3408 11.3344 8.2112 11.9424 8.5504Z" fill="#E08743"/>
<path id="Vector_30" d="M17.1898 11.9975C17.7062 11.8256 18.0335 11.4116 17.9208 11.0729C17.808 10.7342 17.2979 10.599 16.7815 10.7709C16.265 10.9428 15.9377 11.3567 16.0505 11.6955C16.1632 12.0342 16.6733 12.1694 17.1898 11.9975Z" fill="#D9B8C3"/>
<path id="Vector_31" d="M14.421 11.8235C14.5269 11.4826 14.1913 11.0753 13.6714 10.9139C13.1516 10.7525 12.6444 10.898 12.5385 11.239C12.4326 11.5799 12.7682 11.9871 13.2881 12.1485C13.8079 12.31 14.3152 12.1644 14.421 11.8235Z" fill="#D9B8C3"/>
<path id="Vector_32" opacity="0.2" d="M5.31206 22.8416L5.15206 19.1296L8.09606 16.8256L7.02725 13.5616L5.15206 13.0752L3.84006 11.712L3.32166 12.608V19.392L5.31206 22.8416Z" fill="#332424"/>
<path id="Vector_33" opacity="0.2" d="M28.672 18.2016L25.9392 19.9232L25.536 22.2144L24.0448 24.0896L24.4608 25.7472L25.2736 25.28L28.672 19.392V18.2016Z" fill="#332424"/>
<path id="Vector_34" opacity="0.2" d="M23.8464 9.7664L23.0144 11.168L23.3024 12.8128L24.9536 14.0928L26.7008 13.3696L25.952 9.9712L23.8464 9.7664Z" fill="#332424"/>
</g>
</g>
</g>
</svg>
